<svg width="11" height="19" viewBox="0 0 11 19" fill="none" xmlns="http://www.w3.org/2000/svg">
<path d="M3.69687 18.0527V9.83275H0.930664V6.62924H3.69687V4.26676C3.69687 1.52511 5.37138 0.0322266 7.81712 0.0322266C8.98866 0.0322266 9.99553 0.11945 10.289 0.158436V3.02362L8.59271 3.02439C7.26258 3.02439 7.00503 3.65645 7.00503 4.58395V6.62924H10.1773L9.76423 9.83275H7.00502V18.0527H3.69687Z" fill="white" fill-opacity="0.6"/>
<path d="M5.52489 9.83275V16.5726H5.17701V9.83275V8.35261H3.69687H2.4108V8.10938H3.69687H5.17701V6.62924V4.26676C5.17701 3.20195 5.49517 2.55476 5.88032 2.17409C6.27005 1.78889 6.89464 1.51236 7.81712 1.51236C8.17111 1.51236 8.50749 1.52083 8.80882 1.53331V1.54415L8.59271 1.54425C8.59256 1.54425 8.59241 1.54425 8.59226 1.54425C8.59218 1.54425 8.59211 1.54425 8.59204 1.54425C7.72998 1.54436 6.80393 1.74751 6.16781 2.50305C5.57958 3.2017 5.52489 4.05687 5.52489 4.58395V6.62924V8.10938H7.00503H8.49404L8.46268 8.35261H7.00502H5.52489V9.83275Z" stroke="white" stroke-opacity="0.5" stroke-width="2.96028"/>
</svg>
