<svg width="21" height="21" viewBox="0 0 21 21" fill="none" xmlns="http://www.w3.org/2000/svg">
<path d="M10.4957 2.50252C13.1729 2.50252 13.4899 2.51255 14.5475 2.56077C15.1834 2.56856 15.8132 2.68532 16.4096 2.90598C16.8421 3.07278 17.2349 3.32829 17.5627 3.65608C17.8905 3.98386 18.146 4.37665 18.3128 4.80915C18.5334 5.40556 18.6502 6.03539 18.658 6.67126C18.7057 7.72884 18.7162 8.04588 18.7162 10.723C18.7162 13.4002 18.7062 13.7172 18.658 14.7748C18.6502 15.4106 18.5334 16.0405 18.3128 16.6369C18.146 17.0694 17.8905 17.4622 17.5627 17.79C17.2349 18.1177 16.8421 18.3733 16.4096 18.5401C15.8132 18.7607 15.1834 18.8775 14.5475 18.8853C13.4904 18.933 13.1734 18.9435 10.4957 18.9435C7.81812 18.9435 7.50108 18.9335 6.44398 18.8853C5.80811 18.8775 5.17828 18.7607 4.58187 18.5401C4.14936 18.3733 3.75658 18.1177 3.42879 17.79C3.10101 17.4622 2.8455 17.0694 2.6787 16.6369C2.45803 16.0405 2.34127 15.4106 2.33349 14.7748C2.28574 13.7172 2.27524 13.4002 2.27524 10.723C2.27524 8.04588 2.28527 7.72884 2.33349 6.67126C2.34127 6.03539 2.45803 5.40556 2.6787 4.80915C2.8455 4.37665 3.10101 3.98386 3.42879 3.65608C3.75658 3.32829 4.14936 3.07278 4.58187 2.90598C5.17828 2.68532 5.80811 2.56856 6.44398 2.56077C7.50156 2.51303 7.8186 2.50252 10.4957 2.50252ZM10.4957 0.695801C7.77419 0.695801 7.43137 0.70726 6.36185 0.755961C5.52966 0.772514 4.70629 0.930083 3.92679 1.22197C3.2581 1.47391 2.65243 1.86872 2.15205 2.37886C1.64145 2.87942 1.2463 3.48543 0.994204 4.15455C0.702321 4.93405 0.544752 5.75742 0.5282 6.58961C0.480453 7.65818 0.468994 8.001 0.468994 10.7225C0.468994 13.4441 0.480453 13.7869 0.529155 14.8564C0.545707 15.6886 0.703276 16.512 0.99516 17.2915C1.24698 17.9605 1.6418 18.5665 2.15205 19.0672C2.65271 19.5774 3.25871 19.9722 3.92774 20.2241C4.70725 20.516 5.53061 20.6735 6.36281 20.6901C7.43233 20.7378 7.77372 20.7502 10.4967 20.7502C13.2197 20.7502 13.5611 20.7388 14.6306 20.6901C15.4628 20.6735 16.2861 20.516 17.0656 20.2241C17.7315 19.966 18.3362 19.5717 18.841 19.0666C19.3458 18.5615 19.7396 17.9566 19.9973 17.2905C20.2892 16.511 20.4467 15.6877 20.4633 14.8555C20.511 13.7869 20.5225 13.4441 20.5225 10.7225C20.5225 8.001 20.511 7.65818 20.4623 6.58866C20.4458 5.75646 20.2882 4.9331 19.9963 4.15359C19.7445 3.48456 19.3497 2.87856 18.8394 2.37791C18.3388 1.86765 17.7328 1.47283 17.0637 1.22101C16.2842 0.929128 15.4609 0.771559 14.6287 0.755006C13.5601 0.70726 13.2173 0.695801 10.4957 0.695801Z" fill="white" fill-opacity="0.6"/>
<path d="M10.4993 5.57617C9.48095 5.57617 8.48544 5.87815 7.6387 6.44393C6.79196 7.00971 6.132 7.81387 5.74229 8.75472C5.35257 9.69557 5.25061 10.7309 5.44928 11.7297C5.64795 12.7285 6.13835 13.6459 6.85844 14.366C7.57854 15.0861 8.496 15.5765 9.4948 15.7752C10.4936 15.9738 11.5289 15.8719 12.4697 15.4822C13.4106 15.0925 14.2148 14.4325 14.7805 13.5858C15.3463 12.739 15.6483 11.7435 15.6483 10.7251C15.6483 9.35955 15.1058 8.04989 14.1402 7.08427C13.1746 6.11865 11.8649 5.57617 10.4993 5.57617ZM10.4993 14.0674C9.83828 14.0674 9.19209 13.8714 8.64246 13.5041C8.09283 13.1369 7.66445 12.6149 7.41148 12.0042C7.15851 11.3934 7.09233 10.7214 7.22129 10.0731C7.35025 9.42477 7.66857 8.82924 8.13599 8.36182C8.60341 7.89439 9.19894 7.57608 9.84728 7.44711C10.4956 7.31815 11.1676 7.38434 11.7783 7.63731C12.3891 7.89027 12.911 8.31866 13.2783 8.86829C13.6455 9.41792 13.8416 10.0641 13.8416 10.7251C13.8416 11.6116 13.4894 12.4617 12.8626 13.0885C12.2358 13.7153 11.3857 14.0674 10.4993 14.0674Z" fill="white" fill-opacity="0.6"/>
<path d="M15.8504 6.57536C16.5149 6.57536 17.0536 6.03667 17.0536 5.37215C17.0536 4.70764 16.5149 4.16895 15.8504 4.16895C15.1859 4.16895 14.6472 4.70764 14.6472 5.37215C14.6472 6.03667 15.1859 6.57536 15.8504 6.57536Z" fill="white" fill-opacity="0.6"/>
</svg>
