<svg width="42" height="42" viewBox="0 0 42 42" fill="none" xmlns="http://www.w3.org/2000/svg">
<path fill-rule="evenodd" clip-rule="evenodd" d="M0 21C0 9.40202 9.40202 0 21 0C32.598 0 42 9.40202 42 21C42 32.598 32.598 42 21 42C9.40202 42 0 32.598 0 21Z" fill="#FD6312"/>
<path fill-rule="evenodd" clip-rule="evenodd" d="M8.55686 22.1671C8.50374 22.1671 8.46157 22.2113 8.45471 22.2745L8.26855 23.7965L8.45471 25.2923C8.46162 25.3553 8.50369 25.3992 8.55686 25.3992C8.60833 25.3992 8.65025 25.3557 8.65841 25.293L8.87913 23.7965L8.65841 22.2741C8.65055 22.2113 8.60808 22.1671 8.55686 22.1671ZM10.0572 21.2249C10.0032 21.2249 9.95858 21.2715 9.95122 21.3354C9.95122 21.336 9.70086 23.7963 9.70086 23.7963L9.95122 26.2026C9.95828 26.2672 10.0029 26.3138 10.0572 26.3138C10.1104 26.3138 10.1541 26.2683 10.1628 26.2033L10.4476 23.7963L10.1632 21.3354C10.1544 21.27 10.1109 21.2249 10.0572 21.2249ZM11.5072 20.6391C11.4283 20.6391 11.364 20.707 11.3577 20.7975L11.1332 23.7972L11.3577 26.6995C11.3637 26.7894 11.4283 26.8572 11.5072 26.8572C11.5852 26.8572 11.6496 26.7893 11.6565 26.6995L11.9118 23.7972L11.6565 20.7968C11.6496 20.7069 11.5853 20.6391 11.5072 20.6391ZM12.9484 20.8331C12.8564 20.8331 12.783 20.9112 12.7772 21.0147L12.5656 23.7973L12.7772 26.7235C12.7834 26.8267 12.8564 26.9048 12.9484 26.9048C13.0391 26.9048 13.1124 26.8267 13.1193 26.7238L13.3597 23.7973L13.1193 21.0134C13.1128 20.9106 13.0393 20.8331 12.9484 20.8331ZM14.3898 19.0655C14.2872 19.0655 14.2023 19.156 14.1974 19.271L13.9979 23.7984L14.1974 26.7244C14.2026 26.8387 14.3003 26.9288 14.403 26.9288C14.5052 26.9288 14.609 26.8383 14.609 26.7237V26.7247L14.8212 23.7984L14.5893 19.271C14.5831 19.156 14.492 19.0655 14.3898 19.0655ZM15.8312 18.0076C15.7157 18.0076 15.6215 18.1081 15.6164 18.2363C15.6164 18.2366 15.4303 23.7993 15.4303 23.7993L15.6168 26.7068C15.6215 26.8339 15.7157 26.9344 15.8312 26.9344C15.9457 26.9344 16.0402 26.8339 16.0456 26.7057L16.256 23.7993L16.0456 18.2363C16.0399 18.1079 15.9457 18.0076 15.8312 18.0076ZM17.2811 17.2933C17.1403 17.2933 17.0269 17.4144 17.0231 17.5694L16.8627 23.7999L17.0233 26.6598C17.0272 26.813 17.1652 26.9342 17.3057 26.9342C17.4459 26.9342 17.5882 26.813 17.5882 26.6588L17.7441 23.8001L17.5512 17.5694C17.5467 17.4147 17.421 17.2933 17.2811 17.2933ZM18.7316 17.628C18.5659 17.628 18.4331 17.7698 18.4298 17.9514L18.2951 23.8011L18.4298 26.616C18.4331 26.7953 18.569 26.937 18.7349 26.937C18.9004 26.937 19.0396 26.7955 19.0396 26.6141V26.6164L19.1874 23.8015L19.0345 17.9509C19.0306 17.7698 18.897 17.628 18.7316 17.628ZM20.214 15.8397C20.0259 15.8397 19.8715 16.0058 19.8687 16.21L19.7275 23.8026L19.8691 26.558C19.8716 26.7595 20.043 26.9253 20.231 26.9253C20.4187 26.9253 20.5929 26.7594 20.5929 26.555V26.5583L20.7295 23.8026L20.5673 16.2094C20.5645 16.0058 20.4016 15.8397 20.214 15.8397ZM30.5995 20.2085C30.1704 20.2085 29.7609 20.302 29.3881 20.4703C29.1389 17.4327 26.7718 15.05 23.8846 15.05C23.178 15.05 22.4926 15.1996 21.8844 15.4528C21.6481 15.5511 21.586 15.6526 21.586 15.849V26.5461C21.586 26.7523 21.734 26.9242 21.921 26.9444C21.9289 26.9453 30.5449 26.95 30.6007 26.95C32.3303 26.95 33.7318 25.4409 33.7318 23.5794C33.7318 21.7179 32.3289 20.2085 30.5995 20.2085Z" fill="white"/>
<path fill-rule="evenodd" clip-rule="evenodd" d="M42 21C42 32.598 32.598 42 21 42C16.6986 42 12.6992 40.7068 9.36963 38.488L33.432 4.07361C38.6282 7.89648 42 14.0545 42 21Z" fill="black" fill-opacity="0.08"/>
</svg>
