<svg width="17" height="15" viewBox="0 0 17 15" fill="none" xmlns="http://www.w3.org/2000/svg">
<path d="M16.9013 2.25463C16.2811 2.53028 15.6264 2.70256 14.9373 2.80593C15.6264 2.39245 16.1777 1.73779 16.4189 0.945295C15.7642 1.32431 15.0406 1.59996 14.2481 1.77224C13.6279 1.11758 12.7321 0.704102 11.7673 0.704102C9.90666 0.704102 8.39059 2.22017 8.39059 4.0808C8.39059 4.35645 8.42505 4.59765 8.49396 4.83884C5.70301 4.70101 3.18771 3.35723 1.49936 1.28986C1.22371 1.8067 1.05143 2.358 1.05143 2.97821C1.05143 4.14972 1.63718 5.1834 2.5675 5.80361C2.0162 5.76916 1.49936 5.63133 1.01697 5.39014V5.42459C1.01697 7.07849 2.18848 8.45674 3.73901 8.76684C3.46336 8.83575 3.15325 8.87021 2.84315 8.87021C2.63641 8.87021 2.39522 8.83575 2.18848 8.8013C2.63641 10.1451 3.87683 11.1443 5.35845 11.1443C4.18694 12.0402 2.73978 12.5915 1.1548 12.5915C0.879147 12.5915 0.603498 12.5915 0.362305 12.557C1.87838 13.5218 3.63564 14.0731 5.56519 14.0731C11.8018 14.0731 15.2129 8.90466 15.2129 4.42537C15.2129 4.28754 15.2129 4.11526 15.2129 3.97744C15.8676 3.52951 16.4533 2.94375 16.9013 2.25463Z" fill="white" fill-opacity="0.6"/>
</svg>
