<svg width="42" height="42" viewBox="0 0 42 42" fill="none" xmlns="http://www.w3.org/2000/svg">
<path d="M42 21C42 9.40202 32.598 0 21 0C9.40202 0 0 9.40202 0 21C0 32.598 9.40202 42 21 42C32.598 42 42 32.598 42 21Z" fill="#FF0000"/>
<path d="M32.6816 15.2232C32.4074 14.1923 31.5962 13.379 30.5641 13.1003C28.6979 12.6001 21.2105 12.6001 21.2105 12.6001C21.2105 12.6001 13.7269 12.6001 11.8569 13.1003C10.8286 13.3752 10.0174 14.1885 9.73941 15.2232C9.24048 17.0941 9.24048 21.0001 9.24048 21.0001C9.24048 21.0001 9.24048 24.9061 9.73941 26.777C10.0136 27.8079 10.8248 28.6212 11.8569 28.8999C13.7269 29.4001 21.2105 29.4001 21.2105 29.4001C21.2105 29.4001 28.6979 29.4001 30.5641 28.8999C31.5924 28.625 32.4036 27.8117 32.6816 26.777C33.1805 24.9061 33.1805 21.0001 33.1805 21.0001C33.1805 21.0001 33.1805 17.0941 32.6816 15.2232Z" fill="white"/>
<path d="M18.8188 24.6007L25.0381 21.0001L18.8188 17.3996V24.6007Z" fill="#FF0000"/>
</svg>
